<svg viewBox="-16 0 512 512.00001" xmlns="http://www.w3.org/2000/svg"><path d="m137.984375 65.40625c-.878906-8.191406 1.816406-15.59375 8.222656-22.660156l38.804688-42.746094-54.707031 18.441406c-49.8125 16.769532-63.546876 72.800782-37.675782 151.972656l97-41.015624c-31.386718-22.53125-49.738281-45.902344-51.644531-63.992188zm0 0" fill="#68544f"/><path d="m347.898438 18.441406-54.75-18.441406 38.847656 42.757812c6.347656 6.980469 9.027344 14.324219 8.191406 22.445313-1.847656 17.925781-19.9375 41.210937-50.953125 63.738281l96.339844 41.472656c25.886719-79.171874 12.152343-135.203124-37.675781-151.972656zm0 0" fill="#53433f"/><path d="m0 150.742188v15.011718c0 41.382813 33.671875 75.050782 75.054688 75.050782h17.824218l22.957032-90.0625zm0 0" fill="#f6a96c"/><path d="m364.507812 150.742188 22.957032 90.0625h17.824218c41.382813 0 75.054688-33.667969 75.054688-75.050782v-15.011718zm0 0" fill="#ea9b58"/><path d="m400.785156 244.707031-46.53125 131.292969h-228.164062l-45.933594-128.890625c-6.304688-33.324219 2.101562-64.542969 22.214844-88.5625 19.816406-24.019531 49.234375-37.828125 80.460937-37.828125h114.679688c31.222656 0 60.644531 13.808594 80.460937 37.828125 20.113282 24.019531 28.515625 55.238281 22.8125 86.160156zm0 0" fill="#ffbd86"/><path d="m400.785156 244.707031-46.53125 131.292969h-114.082031v-255.28125h57.339844c31.222656 0 60.644531 13.808594 80.457031 37.828125 20.117188 24.019531 28.519531 55.238281 22.816406 86.160156zm0 0" fill="#f6a96c"/><path d="m285.203125 331.871094h-90.0625c-49.539063 0-90.066406 40.527344-90.066406 90.066406 0 49.53125 40.527343 90.0625 90.066406 90.0625h90.0625c49.539063 0 90.066406-40.53125 90.066406-90.0625 0-49.539062-40.527343-90.066406-90.066406-90.066406zm0 0" fill="#725d57"/><path d="m375.269531 421.9375c0 49.53125-40.527343 90.0625-90.066406 90.0625h-45.03125v-180.128906h45.03125c49.539063 0 90.066406 40.527344 90.066406 90.066406zm0 0" fill="#68544f"/><path d="m195.140625 391.914062h30.019531v60.042969h-30.019531zm0 0" fill="#68544f"/><path d="m255.183594 391.914062h30.019531v60.042969h-30.019531zm0 0" fill="#53433f"/><path d="m285.203125 240.804688h30.023437v30.023437h-30.023437zm0 0" fill="#53433f"/><path d="m165.117188 240.804688h30.023437v30.023437h-30.023437zm0 0" fill="#68544f"/></svg>